# xmcd
#
# Track frame offsets:
#	150
#	13093
#	27230
#	39267
#	49819
#	60275
#	66595
#	79281
#	91767
#	105064
#	118674
#	131646
#	144089
#	157750
#	169324
#	188455
#	196460
#	208863
#
# Disc length: 2924 seconds
#
# Revision: 1
# Processed by: cddbd v1.5.2PL0 Copyright (c) Steve Scherf et al.
# Submitted via: audiograbber 1.83.01
#
DISCID=e60b6a12
DTITLE=Sampler - Country - Honky Tonk Angels
DYEAR=1999
DGENRE=Country
TTITLE0=Kenny Rogers - Ruby Don't Take Your Love Away
TTITLE1=Lynn Anderson - Cry
TTITLE2=Willie Nelson - i Hope So
TTITLE3=Honky Tonk Angels - Dolly Parton
TTITLE4=Waylon Jennings - Lorena
TTITLE5=Hollywood Filmfestival Orchestra - Billy the Kid
TTITLE6=Johnny Cash - Folsom Prison Blues
TTITLE7=Billy Jo Spears - Sunshine
TTITLE8=Alabama - Patches
TTITLE9=Willie Nelson and Waylon Jennings - Everything But You
TTITLE10=Lynn Anderson - Danny's Song
TTITLE11=Johnny Paycheck - I'm Not Looking Back Anymore
TTITLE12=Gerges Jones - A Good Yerar for the Roses
TTITLE13=Oak Ridges Boys - No One Cared As Much
TTITLE14=Alabama - I Want to Be With You tonight
TTITLE15=Freddy Fender - Wasted Days and Wasted Nights
TTITLE16=Willie Nelson - Pages
TTITLE17=Johnny Cash - Cold Cold Heart
EXTD=
EXTT0=
EXTT1=
EXTT2=
EXTT3=
EXTT4=
EXTT5=
EXTT6=
EXTT7=
EXTT8=
EXTT9=
EXTT10=
EXTT11=
EXTT12=
EXTT13=
EXTT14=
EXTT15=
EXTT16=
EXTT17=
PLAYORDER=
